<?xml version="1.0" standalone="no"?>
<!DOCTYPE svg PUBLIC "-//W3C//DTD SVG 20010904//EN"
 "http://www.w3.org/TR/2001/REC-SVG-20010904/DTD/svg10.dtd">
<svg version="1.0" xmlns="http://www.w3.org/2000/svg"
 width="500.000000pt" height="500.000000pt" viewBox="0 0 500.000000 500.000000"
 preserveAspectRatio="xMidYMid meet">
<metadata>
Created by potrace 1.14, written by Peter Selinger 2001-2017
</metadata>
<g transform="translate(0.000000,500.000000) scale(0.100000,-0.100000)"
fill="#000000" stroke="none">
<path d="M2726 3595 c-16 -12 -22 -12 -28 -2 -4 7 -8 8 -8 1 0 -18 12 -24 31
-14 11 6 20 6 23 1 4 -5 0 -11 -6 -14 -8 -2 -9 -8 -4 -13 5 -5 11 -4 13 4 3 6
10 12 16 12 6 0 4 -7 -5 -17 -14 -13 -20 -14 -32 -3 -9 7 -16 9 -16 4 0 -4 -5
-3 -12 4 -15 15 -28 15 -28 1 0 -5 3 -8 8 -6 9 6 33 -19 25 -27 -3 -3 -14 -1
-25 5 -11 6 -22 8 -26 5 -3 -3 0 -6 6 -6 7 0 12 -7 12 -15 0 -8 5 -15 11 -15
5 0 7 6 3 13 -5 9 -4 9 6 0 13 -12 4 -37 -11 -28 -5 4 -9 1 -9 -5 0 -7 7 -10
18 -6 14 5 14 4 -2 -9 -16 -12 -22 -12 -29 -2 -5 7 -6 3 -2 -12 5 -17 4 -22
-5 -16 -8 5 -11 4 -6 -3 3 -5 1 -12 -5 -14 -5 -2 -11 -18 -11 -35 -1 -21 -5
-30 -12 -26 -6 4 -4 -1 4 -12 14 -16 13 -17 -8 -11 -16 5 -24 3 -28 -8 -3 -9
-11 -13 -17 -9 -6 3 -7 1 -3 -5 4 -7 2 -12 -3 -12 -6 0 -11 -7 -11 -15 0 -8
-4 -15 -10 -15 -5 0 -10 -4 -10 -10 0 -5 3 -9 8 -9 20 3 32 -2 26 -12 -4 -8
-9 -7 -15 2 -5 8 -9 10 -9 5 0 -5 -6 -4 -13 2 -9 8 -22 6 -45 -5 -24 -12 -30
-18 -20 -24 13 -8 11 -10 -14 -13 -6 0 -13 -7 -16 -15 -3 -10 0 -12 12 -8 20
8 21 -6 1 -23 -9 -7 -15 -8 -15 -2 0 5 -7 13 -16 16 -10 4 -13 2 -8 -6 5 -8 2
-9 -10 -5 -10 4 -15 3 -11 -3 3 -6 1 -10 -6 -10 -7 0 -9 -3 -6 -7 4 -3 -2 -13
-14 -21 -16 -11 -17 -17 -8 -28 8 -10 8 -14 0 -14 -6 0 -11 -5 -11 -11 0 -17
41 -101 46 -96 3 3 -1 18 -10 35 -8 16 -12 32 -9 36 4 3 1 6 -5 6 -7 0 -12 5
-12 11 0 8 5 8 15 -1 8 -7 12 -17 9 -22 -4 -6 3 -5 15 1 14 8 21 8 21 1 0 -5
-7 -10 -15 -10 -8 0 -15 -4 -15 -10 0 -5 6 -7 14 -4 8 3 19 -3 26 -15 6 -12 8
-21 4 -21 -3 0 -1 -7 6 -15 7 -8 16 -12 21 -10 4 3 13 -5 20 -17 9 -18 9 -21
-1 -11 -7 6 -19 9 -27 6 -8 -3 -13 0 -11 8 2 8 -3 13 -9 11 -7 -1 -13 5 -13
13 0 13 -3 13 -26 -1 -23 -16 -28 -16 -57 -2 -18 8 -42 14 -54 13 -13 -1 -23
1 -23 5 0 3 -22 7 -48 9 -39 1 -52 -2 -68 -21 -15 -18 -15 -20 -1 -9 16 12 17
11 13 -10 -3 -13 -5 -26 -5 -29 -1 -3 -6 2 -11 10 -6 10 -10 11 -10 3 0 -7 -3
-12 -7 -11 -14 4 -54 -23 -48 -32 3 -5 1 -11 -5 -15 -5 -3 -10 -15 -10 -26 0
-10 -3 -18 -7 -18 -30 5 -77 -35 -69 -57 6 -15 -23 -56 -34 -49 -3 2 -16 -5
-29 -14 -17 -13 -22 -23 -16 -39 3 -12 13 -22 21 -22 14 0 14 -2 0 -15 -8 -9
-12 -23 -9 -32 5 -11 3 -14 -6 -8 -8 4 -7 -2 3 -17 16 -24 16 -26 -8 -42 -24
-15 -25 -15 -19 1 4 11 3 14 -5 9 -8 -5 -10 -2 -6 8 3 9 2 16 -3 16 -18 0 -10
-35 13 -63 13 -16 24 -35 24 -42 0 -8 6 -12 13 -9 8 3 14 -2 14 -11 0 -9 -6
-14 -13 -11 -7 3 -10 -2 -7 -15 6 -20 26 -35 78 -55 17 -7 55 -22 85 -33 73
-29 109 -34 281 -35 l146 -1 63 43 c35 23 69 42 77 42 7 0 13 5 13 11 0 5 5 7
10 4 6 -4 20 5 31 19 27 34 61 54 52 30 -5 -14 -3 -15 15 -5 16 9 22 9 22 0 0
-6 -9 -13 -20 -16 -11 -3 -20 -10 -20 -15 0 -6 -7 -8 -15 -4 -8 3 -15 1 -15
-4 0 -5 -19 -19 -42 -31 -52 -26 -110 -70 -104 -77 3 -2 21 9 41 27 20 17 43
31 53 31 12 0 7 -8 -16 -27 -19 -14 -50 -44 -70 -66 -21 -22 -45 -49 -54 -59
-22 -22 -22 -28 -2 -28 8 0 50 35 93 78 42 43 93 84 112 92 18 7 42 23 51 34
10 12 18 15 18 9 0 -7 4 -13 9 -13 4 0 6 12 3 27 -4 23 -3 25 19 20 22 -6 23
-5 5 8 -18 13 -18 15 3 41 14 17 18 31 12 37 -5 5 -7 16 -4 25 4 10 2 13 -5 8
-7 -4 -10 -17 -6 -30 4 -18 1 -25 -15 -29 -14 -3 -21 0 -21 9 0 8 6 11 17 7
13 -5 15 -2 10 11 -4 10 -7 22 -7 27 0 6 -6 7 -12 3 -8 -4 -10 -3 -5 2 5 5 12
9 15 10 19 2 41 17 37 24 -3 5 -1 11 5 15 6 4 8 11 5 16 -4 5 -2 9 3 9 16 0
23 31 11 46 -6 8 -8 14 -4 14 4 0 1 8 -6 17 -8 9 -9 14 -3 10 7 -4 18 1 25 10
12 15 12 16 -3 10 -13 -4 -16 -1 -13 15 3 12 10 26 16 32 9 8 10 7 4 -3 -5 -9
-3 -12 5 -9 22 7 21 37 -1 35 -10 -1 -19 -5 -19 -9 0 -4 -5 -8 -12 -8 -6 0 -3
9 7 20 10 11 14 20 8 20 -15 0 -44 -36 -36 -44 4 -4 0 -4 -9 -1 -15 6 -13 11
12 32 16 13 34 22 40 18 5 -3 20 1 34 10 15 10 26 12 30 6 4 -6 14 -7 23 -4
11 4 14 3 9 -6 -5 -7 -20 -10 -37 -7 -28 4 -45 -5 -32 -18 3 -3 12 -1 20 5 9
8 13 8 13 1 0 -6 -8 -16 -17 -21 -17 -10 -17 -10 0 -11 19 0 22 -11 7 -26 -8
-8 -6 -15 5 -24 12 -10 15 -10 16 1 1 28 8 45 33 89 27 48 51 103 47 108 -1 2
5 10 15 16 10 8 17 26 17 44 0 17 5 30 11 29 5 -1 10 3 11 8 0 6 10 42 22 80
34 109 38 139 20 132 -8 -3 -23 0 -32 7 -16 11 -16 13 -1 13 9 0 16 -4 16 -8
0 -22 29 6 32 32 4 27 2 30 -16 25 -21 -5 -21 -5 -1 10 22 17 22 39 -1 121 -8
29 -15 56 -15 60 0 5 -7 12 -15 16 -8 5 -12 12 -9 17 7 12 -53 60 -75 60 -10
0 -22 -9 -25 -20 -4 -11 -11 -17 -17 -14 -7 4 -8 2 -4 -4 4 -7 2 -12 -3 -12
-6 0 -11 -6 -12 -12 0 -7 -8 -30 -17 -51 l-17 -39 -34 49 c-42 59 -112 133
-126 133 -5 0 -19 -7 -29 -15z m84 -43 c48 -50 69 -92 44 -88 -22 3 -29 17
-14 26 10 7 11 10 3 10 -7 0 -13 8 -13 17 0 14 -3 13 -16 -6 -13 -18 -18 -20
-25 -10 -13 22 -11 29 9 23 14 -5 15 -4 2 5 -8 5 -19 6 -23 2 -9 -9 9 -51 27
-63 8 -5 7 -8 -2 -8 -7 0 -17 11 -23 24 -8 16 -18 23 -31 21 -11 -3 -16 0 -12
7 4 7 2 8 -5 4 -6 -4 -9 -11 -6 -16 3 -4 2 -10 -2 -13 -5 -2 -2 -2 5 0 8 1 12
-3 10 -9 -3 -7 -10 -13 -15 -13 -21 0 -22 -11 -3 -12 11 -1 20 2 20 5 0 4 8 8
18 9 10 1 19 -5 19 -13 0 -8 -6 -13 -13 -10 -8 3 -16 2 -18 -3 -3 -4 -18 -7
-35 -6 -25 1 -29 -1 -25 -21 3 -14 -2 -24 -12 -28 -13 -5 -14 -4 -6 7 9 10 8
14 -1 14 -8 0 -13 -12 -13 -29 0 -15 4 -28 8 -28 5 0 7 -4 3 -9 -3 -6 4 -15
15 -21 11 -6 20 -15 20 -21 0 -6 -14 -1 -30 11 -17 12 -29 18 -28 13 2 -4 -1
-8 -5 -8 -5 0 -15 -11 -22 -25 -7 -14 -16 -24 -19 -22 -19 8 -27 0 -15 -15 11
-13 11 -17 1 -20 -6 -3 -9 -10 -6 -15 4 -7 2 -8 -4 -4 -8 4 -10 2 -6 -7 3 -8
1 -18 -5 -22 -7 -3 -11 3 -11 15 0 15 -5 20 -15 17 -8 -4 -17 -2 -21 4 -3 5
-15 7 -26 3 -12 -4 -18 -2 -14 4 3 5 15 12 26 15 11 3 18 2 15 -3 -8 -13 44
-18 55 -4 8 9 6 15 -7 23 -10 6 -12 11 -6 11 7 0 12 3 11 8 -5 14 30 54 37 42
5 -8 10 -8 21 1 7 6 12 15 9 19 -3 5 0 12 6 16 7 4 7 9 1 13 -14 9 5 51 23 51
9 0 13 5 10 11 -4 6 2 17 13 25 13 9 19 23 17 39 -1 14 2 28 7 31 4 3 5 11 1
17 -4 7 1 6 10 -2 15 -12 20 -11 35 3 10 9 22 13 25 9 4 -3 7 -1 7 5 0 7 -4
12 -8 12 -5 0 -17 7 -28 15 -13 10 -15 14 -5 15 8 0 36 -22 61 -48z m220 9 c0
-5 -7 -12 -16 -15 -8 -3 -13 -10 -9 -15 3 -5 -4 -12 -15 -16 -11 -4 -18 -10
-15 -15 3 -5 1 -11 -5 -15 -6 -4 -8 -11 -5 -16 4 -5 1 -9 -5 -9 -7 0 -5 -6 4
-15 8 -8 18 -15 22 -15 3 0 1 7 -6 15 -13 16 -3 20 17 7 10 -7 10 -12 -1 -27
-14 -19 -15 -19 -37 0 l-23 20 22 -29 c25 -33 29 -55 7 -36 -15 12 -35 6 -35
-12 0 -6 7 -5 17 3 14 12 16 12 8 0 -6 -10 -4 -12 5 -6 9 5 10 2 6 -12 -3 -10
0 -28 8 -39 14 -18 15 -18 21 -2 4 10 11 15 17 12 5 -3 4 -11 -3 -20 -9 -11
-9 -14 0 -14 7 0 9 -5 5 -11 -4 -8 -9 -7 -15 2 -4 7 -11 10 -15 6 -4 -4 2 -14
14 -23 12 -8 22 -20 22 -26 0 -6 -11 -1 -25 12 -14 13 -25 32 -25 43 0 11 -3
17 -7 13 -10 -10 -12 -36 -3 -36 9 0 8 -19 -3 -37 -4 -6 -3 -14 2 -17 5 -4 13
4 17 16 l7 22 18 -23 c24 -30 24 -37 -1 -37 -11 0 -20 3 -20 6 0 4 -7 7 -15 7
-23 0 -18 -14 7 -20 12 -4 19 -9 16 -12 -3 -4 -15 -2 -26 4 -11 6 -28 8 -38 4
-13 -5 -16 -3 -11 10 4 11 -2 22 -16 33 -15 11 -17 15 -4 11 9 -4 17 -2 17 3
0 6 -4 10 -10 10 -5 0 -10 5 -10 11 0 8 5 7 15 -1 9 -7 14 -19 11 -26 -6 -17
20 -39 29 -24 3 5 1 10 -4 10 -6 0 -11 5 -11 11 0 5 5 7 10 4 6 -3 10 4 10 17
0 19 -2 20 -11 8 -9 -12 -10 -12 -5 4 5 13 2 17 -9 13 -8 -4 -17 -1 -21 6 -4
7 -4 9 1 5 4 -4 16 -3 26 3 16 8 17 14 8 31 -8 15 -8 18 0 14 6 -4 11 0 11 9
0 9 -4 14 -9 10 -19 -11 -22 17 -4 37 16 20 17 21 0 15 -16 -6 -16 -4 -3 27 8
19 12 37 8 40 -3 3 0 6 6 6 7 0 11 3 10 8 -2 4 10 24 26 45 27 35 46 47 46 28z
m47 -41 c0 -3 9 -25 21 -49 11 -24 19 -52 17 -63 -2 -10 0 -18 5 -18 6 0 9
-11 8 -24 -1 -14 -6 -22 -10 -20 -4 3 -5 11 -2 18 3 8 0 17 -5 21 -6 3 -9 11
-6 16 4 5 1 9 -4 9 -6 0 -11 -4 -11 -10 0 -5 -5 -10 -11 -10 -8 0 -9 4 0 13 6
8 8 17 4 21 -4 4 1 4 12 1 14 -5 16 -4 7 2 -7 6 -12 16 -10 24 2 8 -3 13 -10
11 -9 -2 -12 5 -8 20 3 13 3 17 0 11 -10 -22 -21 -14 -19 12 5 38 -8 37 -38
-1 -16 -19 -23 -34 -17 -34 5 0 10 6 10 13 0 6 9 -3 20 -20 11 -18 25 -33 30
-33 6 0 8 -5 5 -11 -5 -7 -14 -4 -28 8 -11 10 -17 13 -14 7 4 -7 0 -17 -8 -24
-8 -7 -12 -16 -9 -21 3 -5 2 -15 -3 -21 -4 -7 -8 -17 -9 -23 0 -5 -2 -17 -3
-25 -1 -12 -4 -11 -12 3 -8 14 -7 24 5 43 11 16 13 24 5 24 -8 0 -7 6 3 18 29
33 29 41 3 54 l-25 14 22 24 c13 14 22 28 20 33 -1 5 2 6 7 3 5 -3 12 2 15 11
6 14 8 14 25 -3 10 -10 18 -21 18 -24z m-30 -24 c-6 -16 26 -50 37 -39 4 4 4
-1 0 -11 -5 -12 -9 -14 -14 -6 -4 6 -10 11 -14 11 -3 -1 -6 1 -6 4 1 3 -6 13
-15 21 -16 16 -12 34 7 34 5 0 8 -6 5 -14z m-277 -11 c0 -12 -19 -12 -23 0 -4
9 -1 12 9 8 7 -3 14 -7 14 -8z m54 -20 c-2 -25 1 -33 9 -28 7 3 9 3 5 -2 -4
-4 -3 -14 3 -21 8 -9 4 -15 -13 -24 -22 -11 -22 -10 -4 4 16 13 17 16 4 16 -9
0 -19 7 -22 16 -3 8 -11 12 -17 8 -9 -5 -7 -11 5 -20 10 -7 15 -17 12 -23 -4
-6 -14 -3 -27 10 -11 11 -25 17 -31 13 -6 -4 -9 -1 -6 7 3 8 13 14 24 14 10 0
18 5 17 12 -2 7 3 10 11 7 17 -6 31 12 16 21 -11 7 -4 25 9 25 5 0 7 -16 5
-35z m-94 -44 c0 -5 -6 -14 -14 -20 -8 -7 -13 -20 -11 -29 2 -9 4 -21 4 -25 1
-5 6 -5 11 -2 6 3 10 0 10 -7 0 -7 7 -2 16 10 l16 23 25 -27 26 -28 -22 -17
c-11 -9 -21 -20 -21 -24 0 -11 -44 -44 -59 -45 -7 0 -11 -6 -7 -15 3 -8 2 -14
-2 -13 -15 2 -72 -24 -67 -32 5 -8 -14 -28 -27 -29 -5 -1 -9 -4 -9 -8 -1 -5
-11 -14 -23 -22 -11 -8 -25 -21 -29 -28 -4 -7 -13 -13 -20 -13 -7 0 -6 4 3 10
9 6 10 10 3 10 -16 0 -31 -30 -28 -53 3 -14 0 -16 -10 -7 -7 6 -19 8 -27 5 -9
-4 -15 0 -15 10 0 9 6 14 13 11 7 -3 23 8 34 25 12 16 26 27 31 24 5 -4 16 -2
25 3 11 6 13 11 5 16 -6 4 -11 3 -11 -2 0 -5 -10 -9 -23 -9 -15 0 -23 6 -24
18 -1 15 2 17 16 9 19 -10 31 -4 31 14 0 6 -4 5 -9 -2 -6 -11 -11 -10 -25 3
-18 19 -22 40 -4 29 7 -4 8 -3 4 4 -4 6 -13 9 -22 5 -11 -4 -12 -9 -3 -19 12
-15 4 -34 -14 -34 -8 0 -8 3 2 9 9 6 10 11 2 15 -11 7 -15 -6 -12 -33 2 -8 -2
-10 -11 -5 -23 15 -37 13 -31 -4 3 -12 2 -13 -4 -5 -6 8 -14 9 -23 3 -13 -8
-13 -10 -1 -10 17 0 51 -29 51 -43 0 -6 -3 -7 -7 -4 -3 4 -12 2 -20 -4 -10 -9
-13 -8 -11 7 2 11 -1 20 -6 21 -5 1 -12 7 -16 13 -5 9 -9 9 -14 1 -4 -6 -2
-11 4 -11 7 0 9 -7 6 -16 -3 -8 -2 -12 4 -9 6 3 10 1 10 -4 0 -16 -16 -13 -30
4 -7 8 -9 15 -5 15 4 0 2 7 -5 15 -11 14 -7 19 13 16 4 0 7 3 7 9 0 5 8 10 18
10 13 0 14 2 4 9 -11 7 -11 9 2 14 8 3 18 2 22 -4 8 -14 46 21 40 38 -7 17 26
34 44 23 8 -5 18 -6 22 -4 11 7 10 -4 -4 -29 -10 -19 -9 -20 4 -10 8 7 18 10
21 7 9 -10 47 59 42 76 -3 10 2 16 14 17 24 2 47 -22 31 -32 -5 -3 -10 -1 -10
4 0 6 -5 11 -12 11 -6 0 -8 -3 -5 -7 4 -3 -1 -15 -10 -26 -10 -11 -13 -17 -6
-14 6 4 14 3 17 -2 3 -5 -5 -12 -18 -15 -31 -8 -41 -31 -14 -33 13 -1 18 3 14
13 -6 16 5 19 20 5 5 -6 10 -1 10 15 1 13 -3 24 -9 24 -6 0 -7 3 -3 8 7 7 11
8 37 11 6 0 9 8 5 16 -6 17 2 19 24 5 16 -10 15 -12 -14 -27 -12 -7 -15 -13
-7 -17 6 -4 11 -2 11 4 0 6 4 9 9 6 11 -7 23 22 16 35 -3 5 -1 19 6 31 10 18
9 24 -7 37 -19 16 -34 68 -16 57 12 -7 25 22 15 36 -3 7 -1 8 5 4 7 -4 12 -2
12 3 0 6 5 11 10 11 6 0 10 -4 10 -9z m339 -8 c14 10 14 10 3 -5 -14 -17 -1
-35 17 -23 13 7 24 -12 16 -26 -5 -7 -14 -4 -28 8 -12 9 -16 11 -10 3 9 -10
10 -17 2 -27 -14 -16 -33 -17 -23 -1 12 20 11 43 -2 55 -9 9 -11 6 -11 -13 0
-13 5 -24 11 -24 6 0 4 -5 -4 -10 -12 -7 -11 -13 10 -34 24 -26 16 -37 -10
-13 -12 10 -12 9 -2 -5 10 -13 10 -17 0 -22 -7 -3 -2 -3 11 0 18 5 22 3 15 -7
-6 -10 -3 -10 12 1 17 14 18 14 6 -2 -12 -14 -12 -20 0 -36 7 -10 21 -18 31
-16 18 2 22 -7 10 -20 -5 -4 -9 -16 -9 -27 -2 -34 -4 -39 -12 -39 -4 0 -8 9
-9 20 -1 11 2 20 5 20 4 0 8 9 9 20 1 16 -1 17 -11 7 -8 -6 -13 -22 -11 -35 1
-12 -2 -25 -6 -28 -5 -3 -9 0 -9 6 0 6 -4 8 -10 5 -5 -3 -11 -1 -11 4 -1 10
-3 18 -8 39 -2 4 -5 -1 -9 -10 -6 -15 -9 -15 -27 -1 l-20 15 20 -4 c16 -2 20
3 21 27 1 17 -3 35 -8 42 -5 6 -5 14 0 17 11 7 9 36 -6 63 -8 15 -9 24 -1 28
6 4 8 13 5 20 -6 18 15 38 28 25 6 -6 15 -5 25 3z m-296 -12 c5 -1 5 -5 2 -11
-6 -9 8 -15 29 -11 5 1 6 -6 2 -15 -5 -14 -4 -15 8 -5 11 9 16 9 22 0 4 -8 3
-9 -4 -5 -7 4 -12 2 -12 -3 0 -19 -25 -12 -38 10 -13 20 -14 20 -33 3 -12 -11
-19 -13 -19 -5 0 7 -4 10 -9 7 -5 -4 -8 0 -7 6 3 24 16 36 34 33 9 -2 21 -4
25 -4z m337 -63 c0 -4 8 -8 17 -8 15 0 14 -2 -2 -14 -11 -8 -23 -12 -27 -10
-5 3 -8 0 -8 -5 0 -10 14 -15 33 -12 4 0 7 -8 7 -19 0 -11 -5 -20 -11 -20 -5
0 -7 6 -3 13 5 7 1 6 -10 -2 -16 -13 -17 -13 -14 5 2 13 -2 18 -12 16 -8 -2
-12 0 -8 4 4 4 3 13 -3 21 -8 9 -8 17 0 26 12 15 41 19 41 5z m-456 -40 c-5
-8 -2 -9 9 -5 20 8 33 -11 18 -26 -8 -8 -11 -7 -11 3 0 11 -3 11 -12 2 -8 -8
-15 -9 -25 0 -11 9 -10 13 4 24 22 17 26 17 17 2z m200 -93 c-4 -8 -11 -15
-16 -15 -6 0 -5 6 2 15 7 8 14 15 16 15 2 0 1 -7 -2 -15z m39 -13 c0 -12 -1
-26 -2 -31 -1 -10 -41 -8 -58 2 -6 4 -14 0 -17 -9 -3 -9 -2 -12 5 -9 5 4 16 1
24 -5 8 -6 19 -9 25 -5 5 3 10 4 10 1 0 -12 -63 -38 -69 -29 -3 6 -15 15 -26
22 -18 11 -18 11 5 5 22 -6 23 -5 11 9 -7 9 -18 14 -25 10 -6 -3 -7 -2 -3 3 5
5 13 10 18 10 5 1 14 2 20 3 5 0 7 7 3 14 -6 8 -3 8 9 -1 10 -8 22 -10 31 -5
14 8 16 12 16 34 0 6 6 9 12 7 7 -3 12 -14 11 -26z m38 -31 c4 7 11 10 16 6 9
-9 -17 -28 -29 -21 -4 3 -8 0 -8 -5 0 -6 -5 -11 -10 -11 -6 0 -5 8 2 20 7 11
15 15 17 9 2 -8 6 -7 12 2z m84 -1 c4 -6 12 -7 18 -3 7 4 5 -1 -3 -11 -13 -16
-12 -20 4 -32 11 -7 23 -11 27 -8 12 7 11 -7 -1 -26 -5 -8 -10 -10 -10 -5 0 6
-13 19 -28 30 -23 16 -25 17 -13 1 13 -16 13 -17 -5 -14 -12 2 -19 -3 -19 -12
0 -8 6 -14 14 -12 8 2 11 -3 8 -12 -4 -10 -1 -13 9 -9 8 3 14 2 13 -3 -4 -21
2 -35 11 -29 6 4 10 -7 10 -24 0 -17 -5 -31 -11 -31 -6 0 -9 7 -6 14 4 10 1
13 -9 9 -11 -4 -12 -9 -3 -19 13 -15 9 -17 -15 -8 -9 3 -13 10 -10 15 3 5 -2
6 -11 2 -15 -5 -15 -3 -4 16 8 11 17 21 22 21 4 0 5 -4 2 -10 -3 -5 -1 -10 4
-10 13 0 13 3 5 23 -5 13 -9 13 -31 2 -15 -8 -30 -12 -35 -9 -4 3 -8 0 -8 -6
0 -7 9 -9 23 -5 21 6 21 6 3 -9 -13 -11 -15 -16 -6 -16 7 0 11 -3 7 -6 -6 -7
-39 10 -38 19 3 21 -1 27 -14 27 -8 0 -15 -3 -15 -7 1 -15 28 -58 37 -58 4 0
7 -7 5 -15 -2 -8 -4 -21 -4 -27 -1 -7 -5 -13 -10 -13 -5 0 -6 -5 -3 -10 4 -6
10 -8 15 -5 12 8 35 -24 24 -35 -6 -6 -20 2 -38 20 -15 17 -23 30 -17 30 6 0
11 7 11 15 0 16 -21 16 -32 0 -5 -6 -12 -5 -20 4 -8 9 -9 11 -1 7 6 -3 14 -2
18 4 3 5 -2 10 -11 10 -16 0 -16 1 2 16 18 15 18 15 0 10 -16 -6 -17 -4 -6 9
11 14 14 13 27 -2 14 -17 14 -17 8 2 -4 11 -9 30 -10 42 -3 19 0 21 21 13 14
-6 26 -6 29 0 4 6 1 10 -6 10 -9 0 -9 3 1 14 6 8 17 13 25 10 8 -4 13 3 12 18
0 13 4 32 8 42 6 14 5 17 -3 12 -9 -6 -9 -1 0 18 12 28 23 33 33 16z m-54 -27
c-12 -20 -14 -14 -5 12 4 9 9 14 11 11 3 -2 0 -13 -6 -23z m89 -2 c0 -6 9 -8
19 -6 11 2 22 -3 25 -11 6 -15 -6 -19 -18 -6 -4 4 -12 8 -17 8 -5 1 -13 2 -19
3 -5 0 -10 6 -10 11 0 6 5 10 10 10 6 0 10 -4 10 -9z m-581 -42 c-7 -4 -8 -9
-1 -13 5 -3 12 1 16 9 3 8 1 17 -5 20 -10 7 -3 25 11 25 10 0 7 -41 -5 -59
-10 -17 -56 26 -48 45 5 13 9 12 24 -2 13 -12 16 -20 8 -25z m246 31 c-3 -5 0
-10 9 -10 8 0 16 3 19 8 2 4 3 2 1 -5 -1 -6 6 -19 17 -29 20 -18 27 -6 8 13
-7 7 -7 13 0 17 14 9 68 -46 65 -66 -1 -9 5 -19 13 -22 11 -5 12 -10 4 -20 -6
-7 -9 -16 -6 -20 3 -3 0 -2 -6 3 -6 5 -19 7 -28 4 -13 -4 -13 -2 2 7 9 6 17
15 17 21 0 5 -11 2 -24 -6 -25 -17 -40 -8 -31 17 4 9 0 15 -9 15 -16 0 -17
-22 -3 -44 5 -8 4 -13 -2 -13 -6 0 -11 5 -11 11 0 5 -5 7 -11 3 -16 -9 11 -25
33 -18 12 4 16 -1 15 -16 -1 -11 -5 -20 -10 -20 -4 0 -5 -5 -2 -10 4 -6 11 -8
16 -5 5 3 6 -1 2 -10 -5 -13 -7 -14 -14 -3 -7 11 -9 11 -9 0 0 -8 9 -16 20
-19 11 -3 20 -10 20 -15 0 -6 -8 -7 -17 -3 -30 11 -35 11 -40 -5 -4 -13 -3
-13 6 0 7 10 11 11 11 3 0 -7 6 -12 13 -10 6 1 12 -4 11 -10 -3 -37 -5 -43
-14 -43 -5 0 -6 8 -3 18 6 14 4 15 -8 5 -17 -14 -16 -15 -23 42 -5 45 -5 45
-17 45 -5 0 -7 -6 -3 -12 5 -9 2 -9 -9 1 -10 8 -17 9 -17 3 0 -6 5 -14 10 -17
8 -5 7 -11 -1 -21 -10 -13 -6 -18 14 -15 4 0 7 -3 7 -9 0 -5 -6 -10 -12 -10
-9 0 -8 -4 2 -10 9 -6 10 -10 3 -10 -6 0 -14 4 -17 9 -3 5 -22 8 -41 6 -19 -1
-35 2 -35 7 0 5 -6 6 -12 2 -8 -5 -7 0 2 11 14 17 13 18 -4 11 -19 -7 -19 -6
-2 13 13 14 14 20 4 24 -9 3 -6 10 10 22 12 9 19 21 16 27 -4 6 -9 5 -15 -3
-4 -7 -11 -10 -16 -6 -4 5 -1 12 7 17 14 9 13 11 -9 14 -22 3 -20 15 3 33 20
16 22 23 13 33 -9 9 -9 11 0 6 6 -3 13 -3 16 1 2 5 2 3 1 -4 -5 -20 10 -21 29
-1 9 10 12 18 6 18 -8 0 -8 5 1 15 7 8 17 12 23 8 6 -4 8 0 4 9 -3 9 -3 19 0
22 10 10 15 7 8 -4z m247 -14 c7 4 8 2 4 -5 -4 -6 -12 -8 -18 -5 -8 5 -9 1 -5
-10 4 -9 3 -15 -2 -12 -5 3 -8 18 -8 32 0 22 1 24 9 10 5 -9 14 -13 20 -10z
m-75 -2 c-3 -3 -12 -4 -19 -1 -8 3 -5 6 6 6 11 1 17 -2 13 -5z m-27 -14 c13
-9 13 -10 0 -10 -13 0 -13 -1 0 -10 13 -9 13 -10 0 -10 -13 0 -13 -1 0 -10 8
-5 11 -12 7 -17 -9 -9 -28 17 -21 29 3 5 -2 11 -10 14 -9 3 -13 10 -10 15 7
11 15 11 34 -1z m205 -24 c8 4 12 10 9 15 -3 5 0 9 5 9 6 0 11 -7 11 -15 0 -8
-4 -15 -9 -15 -5 0 -8 -11 -7 -24 3 -22 1 -23 -20 -14 -13 6 -21 14 -19 18 3
4 -2 13 -10 20 -8 7 -12 16 -9 21 3 5 12 3 20 -5 8 -9 21 -13 29 -10z m-627
-19 c-5 -6 23 -37 34 -37 5 0 6 5 2 12 -5 7 -3 8 5 4 7 -5 10 -14 7 -22 -3 -8
0 -14 7 -15 7 0 1 -5 -13 -10 -38 -16 -42 -15 -45 5 -2 10 -8 23 -14 29 -6 6
-6 16 2 28 6 10 13 16 15 14 2 -2 2 -5 0 -8z m-168 -81 c37 -4 61 -17 54 -28
-4 -6 -9 -6 -14 2 -4 7 -30 14 -56 15 -27 2 -49 4 -49 5 0 1 -7 3 -17 5 -12 2
-15 -3 -13 -21 1 -14 -2 -21 -8 -17 -6 4 -7 1 -2 -7 6 -9 4 -11 -5 -5 -7 5 -5
-3 6 -17 10 -15 21 -26 24 -26 3 0 7 -1 10 -2 19 -7 39 -7 34 1 -3 5 -9 7 -14
4 -5 -3 -11 -1 -15 5 -11 18 42 11 56 -7 7 -10 9 -15 4 -10 -4 4 -17 -1 -28
-10 -10 -10 -22 -17 -26 -15 -3 1 -6 -1 -6 -5 -1 -28 -45 -39 -45 -11 0 5 4 7
9 3 5 -3 12 -1 15 4 4 5 2 12 -4 16 -6 4 -8 10 -5 15 3 4 -3 7 -12 6 -9 0 -18
6 -20 14 -4 13 -3 13 6 0 5 -8 13 -11 18 -7 9 9 -17 28 -29 21 -4 -3 -8 0 -8
7 0 8 -4 8 -15 -1 -8 -7 -15 -18 -15 -24 0 -6 4 -4 10 4 5 8 12 11 15 8 11
-11 -6 -30 -22 -24 -8 3 -11 1 -8 -4 4 -6 3 -10 -2 -9 -17 3 -24 -1 -18 -11 4
-6 12 -7 18 -3 18 11 36 12 42 3 3 -4 -4 -10 -15 -13 -13 -3 -18 -1 -13 5 3 6
1 8 -5 4 -12 -7 -12 -46 0 -46 4 0 8 8 8 17 0 9 3 13 7 10 3 -4 13 -1 21 6 13
10 15 9 9 -5 -3 -10 -1 -20 5 -24 7 -4 8 -3 4 4 -11 18 0 14 15 -5 7 -10 9
-15 5 -11 -5 4 -15 3 -22 -3 -10 -9 -15 -7 -20 5 -3 9 -10 13 -16 10 -5 -4 -5
-11 2 -19 15 -18 -15 -40 -56 -40 -34 0 -49 -17 -19 -21 9 -1 12 2 8 9 -4 7 0
8 11 4 10 -4 23 -7 29 -8 7 -1 1 -4 -13 -8 -17 -5 -24 -13 -22 -27 2 -16 1
-16 -7 -4 -9 12 -16 9 -8 -4 1 -2 -6 -13 -16 -23 -9 -11 -14 -23 -10 -27 4 -4
-1 -4 -11 0 -16 6 -17 5 -4 -15 9 -15 10 -24 2 -29 -6 -4 -10 -15 -9 -24 2
-10 -2 -15 -9 -12 -13 5 -18 34 -6 34 8 0 6 57 -3 66 -16 16 -6 26 11 11 17
-15 18 -14 18 18 0 19 -5 35 -11 35 -5 0 -3 5 5 10 12 7 10 9 -8 7 -14 -1 -18
-5 -12 -11 14 -14 12 -23 -5 -23 -8 0 -15 5 -15 11 0 6 -5 4 -10 -4 -8 -12
-10 -12 -10 -1 0 8 -3 11 -6 8 -4 -4 -1 -13 6 -22 15 -18 -1 -20 -18 -3 -7 7
-12 9 -12 5 0 -4 15 -16 33 -27 35 -22 32 -26 -7 -9 -34 16 -39 34 -15 55 10
9 19 13 19 9 0 -5 14 4 30 20 20 19 26 31 18 36 -18 11 38 58 63 52 16 -5 17
-8 7 -21 -11 -13 -11 -14 1 -7 10 6 12 4 6 -5 -5 -8 -4 -11 3 -7 11 7 11 25 0
43 -10 15 -2 49 11 47 6 -2 11 2 11 7 0 6 -6 10 -12 10 -18 1 23 24 42 25 22
0 41 15 35 26 -4 5 -1 9 6 9 8 0 8 4 -1 15 -13 15 2 15 110 1z m227 -11 c8 -9
13 -19 9 -22 -7 -7 -36 16 -36 28 0 13 10 11 27 -6z m-250 -10 c47 3 61 -9 40
-33 -9 -10 -14 -22 -10 -26 5 -4 -9 0 -29 10 -20 9 -36 22 -35 27 1 5 -5 12
-13 14 -9 3 -11 1 -5 -4 20 -16 7 -51 -14 -38 -6 3 -8 12 -4 18 8 12 9 18 12
38 1 8 5 8 14 1 6 -5 26 -9 44 -7z m781 2 l24 1 -21 -15 c-12 -8 -19 -19 -16
-24 4 -5 0 -10 -7 -11 -7 0 -17 -2 -23 -3 -5 -2 -14 -3 -18 -4 -5 0 -5 -6 -2
-11 4 -7 13 -7 26 0 13 7 19 7 19 0 0 -5 -4 -10 -10 -10 -5 0 -10 -8 -10 -17
0 -11 -8 -6 -25 16 -23 32 -23 35 -9 63 11 22 20 28 32 22 9 -4 27 -7 40 -7z
m-613 -24 l18 -26 -32 22 c-34 25 -38 31 -17 31 7 0 22 -12 31 -27z m195 -17
c0 -3 -4 -8 -10 -11 -5 -3 -10 -1 -10 4 0 6 5 11 10 11 6 0 10 -2 10 -4z m275
-24 c-6 -7 19 -30 28 -25 4 2 7 -1 7 -6 0 -6 -3 -12 -7 -12 -34 -6 -53 -5 -53
3 0 5 10 6 22 2 21 -6 21 -5 9 10 -8 9 -19 15 -26 12 -6 -2 -12 2 -12 9 0 8 8
13 18 12 10 -1 16 -3 14 -5z m-705 -47 c0 -5 -24 0 -37 8 -7 5 -13 13 -13 18
0 5 11 2 25 -7 14 -9 25 -18 25 -19z m254 -12 c13 -12 28 -18 33 -15 4 4 2 0
-4 -8 -23 -26 -13 -34 12 -10 24 23 50 21 27 -2 -7 -7 -12 -19 -12 -28 0 -10
6 -8 20 10 11 14 20 20 20 15 0 -6 -5 -16 -11 -22 -8 -8 -6 -13 9 -17 11 -4
23 -14 26 -23 5 -13 4 -13 -7 -4 -11 9 -17 7 -28 -6 -9 -10 -9 -14 -2 -10 17
11 54 -15 48 -33 -3 -11 2 -16 15 -17 13 -1 18 2 13 10 -4 7 1 6 10 -2 19 -15
16 -24 -8 -27 -8 -1 -15 2 -15 8 0 6 -7 5 -17 -3 -10 -7 -15 -10 -11 -5 11 13
-11 48 -24 40 -7 -4 -8 -3 -4 4 4 7 3 12 -2 12 -16 0 -22 -13 -11 -26 7 -9 6
-12 -8 -10 -11 2 -17 10 -15 22 3 15 1 16 -12 5 -9 -7 -13 -18 -10 -23 4 -6
-5 -3 -18 6 -14 9 -28 13 -33 9 -4 -5 -5 -2 -1 5 4 6 4 12 -1 13 -43 4 -83 19
-51 19 17 0 18 15 4 38 -4 7 -3 19 3 26 7 9 7 16 -2 26 -10 12 -9 12 4 2 14
-11 17 -9 17 13 0 14 -5 22 -11 18 -5 -3 -7 -1 -4 5 10 15 33 9 61 -15z m47
10 c12 -16 12 -17 -2 -6 -9 7 -20 9 -24 5 -5 -4 -5 -1 -1 6 9 16 11 15 27 -5z
m369 3 c0 -8 -4 -17 -9 -21 -6 -3 -9 4 -8 15 1 23 17 28 17 6z m-320 -17 c0
-6 -4 -7 -10 -4 -5 3 -10 11 -10 16 0 6 5 7 10 4 6 -3 10 -11 10 -16z m165 -9
c-4 -13 -2 -20 7 -20 10 0 9 -3 -2 -10 -8 -5 -19 -10 -25 -10 -5 0 -3 5 5 10
12 8 12 10 1 10 -11 0 -11 3 0 16 12 15 11 16 -8 10 -12 -4 -24 -2 -28 4 -4 6
6 10 25 10 27 0 30 -3 25 -20z m-148 -22 c-3 -7 -5 -2 -5 12 0 14 2 19 5 13 2
-7 2 -19 0 -25z m193 28 c0 -2 -7 -6 -15 -10 -8 -3 -15 -1 -15 4 0 6 7 10 15
10 8 0 15 -2 15 -4z m-80 -22 c0 -2 -11 -3 -24 -2 -14 1 -23 5 -20 9 4 7 44 0
44 -7z m300 -9 c-7 -9 -15 -13 -17 -11 -7 7 7 26 19 26 6 0 6 -6 -2 -15z
m-338 -10 c2 3 5 -2 5 -10 0 -20 -13 -19 -21 1 -3 8 -11 12 -17 8 -8 -4 -9 -3
-5 5 6 8 12 9 20 2 7 -6 15 -9 18 -6z m-55 -8 c0 -8 -6 -14 -14 -14 -9 0 -10
4 -2 14 6 7 12 13 14 13 1 0 2 -6 2 -13z m153 -7 c0 -5 -4 -10 -10 -10 -5 0
-10 5 -10 10 0 6 5 10 10 10 6 0 10 -4 10 -10z m28 -25 c-3 -3 -9 2 -12 12 -6
14 -5 15 5 6 7 -7 10 -15 7 -18z m-392 3 c4 -7 3 -8 -4 -4 -7 4 -12 2 -12 -5
0 -7 -3 -10 -6 -6 -6 5 3 27 11 27 2 0 7 -5 11 -12z m229 2 c-3 -5 2 -11 12
-11 17 -1 17 -2 1 -6 -26 -7 -22 -22 5 -17 20 4 20 4 2 -5 -26 -11 -36 -5 -31
22 6 28 5 27 12 27 3 0 2 -4 -1 -10z m110 0 c3 -6 -1 -7 -9 -4 -18 7 -21 14
-7 14 6 0 13 -4 16 -10z m132 3 c-4 -3 -1 -13 6 -22 11 -14 10 -14 -5 -2 -16
12 -16 31 -1 31 4 0 3 -3 0 -7z m-79 -68 c-3 -3 -9 2 -12 12 -6 14 -5 15 5 6
7 -7 10 -15 7 -18z m-751 -2 c0 -8 -4 -10 -12 -3 -7 6 -15 6 -22 -1 -6 -6 -10
-5 -10 4 0 7 10 13 22 13 12 0 22 -6 22 -13z m860 -38 c0 -8 -4 -15 -9 -15
-10 0 -11 14 -1 23 9 10 10 9 10 -8z m-880 -12 c0 -7 -4 -13 -8 -13 -5 0 -6
-7 -3 -15 4 -8 1 -15 -6 -15 -7 0 -10 8 -7 20 3 11 0 23 -5 27 -7 3 -8 1 -4
-5 4 -7 3 -12 -2 -12 -5 0 -9 -7 -9 -15 0 -8 4 -15 9 -15 5 0 6 -4 3 -10 -4
-6 1 -7 11 -3 11 4 15 3 10 -5 -3 -6 -1 -14 5 -18 9 -5 6 -11 -7 -21 -15 -11
-16 -16 -6 -22 18 -11 17 -22 -1 -33 -19 -10 -39 -3 -54 21 -9 15 -8 23 5 42
20 29 24 49 9 49 -8 0 -7 3 2 9 9 6 10 10 2 16 -9 5 -9 10 -1 20 13 16 57 14
57 -2z m856 -38 c-3 -9 -8 -14 -10 -11 -3 3 -2 9 2 15 9 16 15 13 8 -4z m-265
-30 c-3 -3 -9 2 -12 12 -6 14 -5 15 5 6 7 -7 10 -15 7 -18z m-22 4 c3 -6 1
-16 -6 -22 -10 -9 -11 -9 -5 2 4 8 2 17 -6 22 -9 6 -10 9 -2 9 6 0 15 -5 19
-11z m60 -4 c-1 -8 -6 -18 -11 -22 -4 -4 -5 -2 -1 5 4 6 2 12 -3 12 -6 0 -11
5 -11 10 0 6 6 10 14 10 8 0 13 -7 12 -15z m-521 -84 c3 -5 2 -12 -3 -15 -5
-3 -9 1 -9 9 0 17 3 19 12 6z m-106 -37 c-8 -23 -8 -25 5 -15 12 10 14 9 11
-6 -2 -10 -4 -21 -4 -25 -1 -5 -6 -8 -12 -8 -5 0 -7 5 -3 11 4 7 1 10 -7 7 -8
-3 -22 -1 -32 4 -15 7 -16 12 -6 24 6 8 8 14 3 14 -17 0 21 20 38 20 15 0 16
-4 7 -26z m141 10 c0 -8 -19 -13 -24 -6 -3 5 1 9 9 9 8 0 15 -2 15 -3z m344
-13 c3 -5 -2 -15 -12 -22 -15 -13 -16 -12 -4 3 10 13 10 17 0 21 -9 4 -9 6 -1
6 6 1 14 -3 17 -8z m-37 -22 c1 -11 -5 -23 -13 -26 -7 -3 -11 -9 -9 -14 3 -4
-10 -2 -30 6 -20 9 -35 11 -35 5 0 -5 9 -10 19 -10 25 0 37 -18 17 -26 -9 -3
-13 -10 -10 -15 3 -5 2 -9 -3 -8 -4 1 -10 1 -13 -1 -25 -9 -55 -8 -62 2 -4 8
-8 8 -8 2 0 -6 -27 -11 -70 -11 -49 -1 -70 3 -67 11 2 6 13 10 23 9 10 -1 13
0 7 3 -18 8 -16 25 2 18 8 -4 15 -1 15 4 0 6 -9 14 -20 17 -11 3 -20 11 -20
17 0 7 5 6 14 -1 8 -6 20 -10 27 -9 9 2 13 -4 11 -14 -2 -10 2 -18 8 -18 5 0
11 5 11 10 1 6 2 14 3 19 0 5 5 13 10 18 5 5 6 3 2 -4 -8 -14 6 -18 17 -6 13
12 55 9 50 -4 -4 -9 -10 -10 -23 -3 -11 6 -21 6 -24 1 -10 -15 40 -19 60 -4
10 7 14 13 10 13 -4 0 -4 5 -1 10 5 8 11 7 21 -1 11 -9 15 -8 20 5 3 9 11 16
16 16 7 0 6 -5 -1 -14 -9 -11 -8 -15 6 -20 10 -4 14 -4 10 0 -4 4 0 16 10 26
20 22 18 22 20 -3z m-322 -24 c6 0 17 4 25 9 8 5 12 6 8 1 -4 -4 -3 -14 3 -21
13 -16 -6 -58 -22 -48 -6 3 -3 11 8 19 10 7 15 17 10 21 -4 4 -7 2 -7 -4 0 -7
-7 -12 -15 -12 -8 0 -15 -6 -16 -12 0 -10 -2 -10 -6 0 -2 6 -9 10 -14 6 -13
-7 -11 10 2 23 8 8 8 13 0 17 -6 4 -11 13 -11 19 1 8 5 6 13 -3 7 -9 17 -15
22 -15z"/>
<path d="M2760 3535 c-7 -9 -11 -17 -9 -20 3 -2 10 5 17 15 14 24 10 26 -8 5z"/>
<path d="M2790 3546 c0 -2 7 -7 16 -10 8 -3 12 -2 9 4 -6 10 -25 14 -25 6z"/>
<path d="M2590 3299 c0 -5 5 -7 10 -4 6 3 10 8 10 11 0 2 -4 4 -10 4 -5 0 -10
-5 -10 -11z"/>
<path d="M2980 3220 c0 -5 5 -10 11 -10 5 0 7 5 4 10 -3 6 -8 10 -11 10 -2 0
-4 -4 -4 -10z"/>
<path d="M2689 3342 c7 -13 19 -26 27 -29 12 -4 12 -8 2 -21 -10 -12 -10 -14
0 -8 6 4 12 3 12 -3 0 -5 -6 -11 -12 -14 -9 -3 -10 -8 -3 -15 7 -8 22 1 49 30
22 23 34 38 28 34 -6 -3 -14 3 -17 16 l-7 21 -18 -23 -18 -23 -27 29 c-23 24
-26 25 -16 6z m81 -24 c0 -7 -10 -24 -23 -38 -12 -14 -18 -20 -13 -13 5 8 6
16 3 19 -3 3 2 14 11 25 19 22 22 23 22 7z"/>
<path d="M3045 3245 c29 -25 29 -26 5 -20 -14 4 -20 3 -15 -2 10 -8 17 -28 18
-51 0 -8 4 -9 10 -3 7 7 5 16 -4 27 -12 15 -11 16 11 10 19 -6 21 -5 10 3 -8
6 -11 11 -6 11 13 0 -14 30 -38 41 -13 7 -10 1 9 -16z"/>
<path d="M2741 3391 c-8 -5 -9 -11 -3 -15 5 -3 12 1 16 9 6 17 6 18 -13 6z"/>
<path d="M3070 3319 c0 -5 5 -7 10 -4 6 3 10 8 10 11 0 2 -4 4 -10 4 -5 0 -10
-5 -10 -11z"/>
<path d="M2860 3170 c-8 -5 -10 -10 -5 -10 6 0 17 5 25 10 8 5 11 10 5 10 -5
0 -17 -5 -25 -10z"/>
<path d="M2821 3131 c-9 -6 -10 -11 -2 -15 6 -4 11 -2 11 4 0 6 5 8 12 4 7 -4
8 -3 4 4 -8 14 -7 14 -25 3z"/>
<path d="M2995 3140 c3 -5 8 -10 11 -10 2 0 4 5 4 10 0 6 -5 10 -11 10 -5 0
-7 -4 -4 -10z"/>
<path d="M2953 3032 c1 -16 5 -19 19 -11 10 5 18 15 17 22 0 9 -2 8 -6 -1 -4
-10 -8 -10 -18 -2 -11 9 -14 7 -12 -8z"/>
<path d="M2890 2939 c0 -15 18 -18 34 -6 16 12 15 13 -8 13 -14 0 -26 -3 -26
-7z"/>
<path d="M2780 3095 c6 -8 9 -19 6 -24 -4 -5 -2 -13 4 -16 8 -5 7 -11 -1 -21
-6 -8 -9 -17 -5 -21 3 -3 6 -1 6 6 0 7 4 10 9 7 20 -12 20 28 0 55 -11 16 -23
29 -26 29 -3 0 0 -7 7 -15z"/>
<path d="M2714 3085 c-6 -13 -9 -14 -16 -3 -8 10 -9 9 -5 -3 3 -9 -4 -24 -15
-33 -19 -16 -20 -42 -2 -40 15 3 55 -54 44 -61 -6 -4 -9 -1 -8 6 2 6 -3 14
-11 17 -8 2 -11 0 -7 -6 3 -6 -1 -18 -11 -27 -14 -14 -14 -18 -2 -26 8 -5 12
-9 9 -10 -3 0 -13 -2 -22 -4 -23 -4 -23 6 2 37 14 19 16 28 8 36 -9 9 -8 12 2
12 13 0 13 2 1 9 -8 5 -23 8 -34 6 -16 -4 -17 -2 -6 11 19 23 6 25 -21 3 -14
-11 -20 -19 -15 -18 6 1 20 -2 31 -6 23 -7 25 -20 9 -45 -11 -16 -15 -79 -6
-81 47 -7 69 -4 60 7 -7 8 -7 14 1 19 8 5 8 11 -1 21 -11 13 -6 29 9 29 4 1
18 7 32 14 23 13 24 13 11 -2 -12 -15 -11 -17 4 -17 10 0 15 3 12 6 -3 4 -2
14 3 24 7 13 5 16 -13 15 -23 -2 -60 32 -51 46 3 5 7 9 10 9 3 0 3 -4 -1 -9
-3 -5 -1 -12 4 -15 11 -7 25 12 26 34 0 8 6 14 13 12 20 -4 10 19 -16 36 -19
13 -22 12 -28 -3z m29 -28 c-2 -4 -9 -4 -15 -1 -6 4 -6 -1 1 -14 8 -14 8 -23
1 -27 -6 -4 -9 -1 -8 7 3 14 -5 14 -35 2 -14 -5 -12 0 7 19 14 14 26 31 26 37
0 7 5 6 14 -2 8 -7 12 -16 9 -21z m-80 -122 c-10 -13 -20 -21 -22 -19 -2 2 3
12 12 22 10 10 14 22 10 27 -5 4 -2 5 5 1 9 -6 8 -13 -5 -31z m28 -48 c-6 -8
-9 -16 -6 -18 2 -3 -4 -5 -14 -5 -11 0 -17 6 -14 13 3 7 9 11 13 8 5 -3 11 -1
15 5 3 5 9 10 12 10 3 0 0 -6 -6 -13z"/>
<path d="M3046 3047 c3 -10 9 -15 12 -12 3 3 0 11 -7 18 -10 9 -11 8 -5 -6z"/>
<path d="M2431 3018 c9 -7 15 -21 13 -31 -2 -15 0 -16 12 -6 16 13 11 25 -19
39 -19 10 -20 9 -6 -2z"/>
<path d="M2186 2861 c-4 -5 -2 -12 3 -15 5 -4 12 -2 15 3 4 5 2 12 -3 15 -5 4
-12 2 -15 -3z"/>
<path d="M2024 2806 c-3 -9 -10 -14 -15 -11 -4 3 -6 -4 -4 -16 3 -13 -2 -27
-12 -34 -14 -11 -14 -12 3 -10 10 1 26 5 35 9 9 4 28 5 42 2 35 -6 56 18 28
33 -14 8 -22 8 -26 1 -5 -8 -11 -7 -21 1 -7 6 -12 15 -9 19 3 5 1 11 -5 15 -6
3 -13 -1 -16 -9z m36 -42 c0 -3 -5 -2 -11 1 -6 4 -16 -1 -23 -10 -12 -16 -13
-16 -10 6 1 13 3 25 3 27 2 5 41 -18 41 -24z m44 -6 c-4 -6 -10 -5 -15 3 -7
12 -9 12 -9 0 0 -8 -3 -12 -6 -8 -10 10 6 26 21 21 8 -4 12 -11 9 -16z"/>
<path d="M2014 2685 c0 -18 4 -31 9 -28 4 3 6 8 3 11 -3 3 2 15 11 26 10 12
14 18 9 14 -5 -4 -14 -4 -20 2 -8 6 -12 -1 -12 -25z"/>
<path d="M2248 2920 c12 -15 19 -17 29 -8 17 13 10 21 -21 24 -23 2 -24 1 -8
-16z"/>
<path d="M2962 2924 c-11 -27 -11 -27 3 -10 8 11 15 14 15 8 0 -7 5 -12 11
-12 5 0 8 4 5 9 -4 5 -3 11 1 14 5 2 3 2 -4 1 -6 -2 -13 2 -15 8 -2 6 -9 -3
-16 -18z"/>
<path d="M2397 2826 c-3 -9 -2 -18 4 -21 5 -4 -1 -15 -13 -26 -17 -14 -20 -21
-11 -27 7 -4 11 -17 9 -29 -6 -27 22 -25 38 3 6 10 17 20 24 22 8 1 11 -2 8
-7 -3 -5 2 -8 11 -6 10 2 20 4 23 4 2 1 -1 6 -8 13 -9 9 -8 16 6 32 14 17 12
17 -9 -2 -22 -19 -28 -21 -38 -8 -8 10 -9 15 -1 18 6 2 0 14 -13 26 -20 19
-25 21 -30 8z m30 -30 c-3 -6 3 -20 12 -30 9 -11 11 -17 5 -13 -14 8 -47 -26
-37 -38 5 -4 2 -5 -5 0 -10 5 -11 10 -3 18 7 7 7 15 -1 25 -10 11 -8 16 6 24
14 8 15 13 5 24 -10 12 -9 13 5 8 9 -4 15 -12 13 -18z"/>
<path d="M2406 2771 c-4 -5 -2 -12 3 -15 5 -4 12 -2 15 3 4 5 2 12 -3 15 -5 4
-12 2 -15 -3z"/>
<path d="M2493 2735 c-6 -7 -9 -17 -5 -21 4 -5 -2 -2 -12 6 -18 14 -19 13 -13
-5 7 -20 7 -20 -8 0 -14 17 -17 18 -25 5 -13 -20 -12 -27 2 -36 7 -5 9 -2 4 7
-4 8 -1 6 7 -4 12 -15 16 -15 26 -3 7 8 19 12 26 10 9 -4 12 1 11 13 -2 10 4
21 12 24 13 5 13 6 1 11 -8 3 -19 0 -26 -7z"/>
<path d="M2530 2696 c0 -2 8 -10 18 -17 15 -13 16 -12 3 4 -13 16 -21 21 -21
13z"/>
<path d="M1919 2527 c-14 -20 -14 -23 3 -39 10 -10 20 -13 23 -8 4 6 2 10 -2
10 -5 0 -9 9 -10 20 -1 11 1 19 5 19 4 -1 14 -1 22 0 13 1 13 2 0 11 -20 13
-23 13 -41 -13z"/>
<path d="M1950 2435 c0 -8 4 -15 8 -15 5 0 9 7 9 15 0 8 -4 15 -9 15 -4 0 -8
-7 -8 -15z"/>
<path d="M2233 2350 c5 -29 13 -33 13 -5 0 14 -4 25 -8 25 -4 0 -7 -9 -5 -20z"/>
<path d="M2317 2363 c-10 -9 -9 -23 1 -23 5 0 9 7 9 15 0 17 -1 18 -10 8z"/>
<path d="M2346 2344 c-23 -23 -20 -30 4 -9 11 10 20 20 20 22 0 7 -9 2 -24
-13z"/>
<path d="M2197 2329 c7 -7 15 -10 18 -7 3 3 -2 9 -12 12 -14 6 -15 5 -6 -5z"/>
<path d="M2094 2368 c-4 -5 -3 -12 0 -15 3 -4 6 -1 6 6 0 7 4 10 9 6 5 -3 12
-2 15 3 3 5 -2 9 -10 9 -8 0 -17 -4 -20 -9z"/>
<path d="M2390 3001 c0 -5 7 -11 14 -14 10 -4 13 -1 9 9 -6 15 -23 19 -23 5z"/>
<path d="M2904 2746 c-3 -8 -13 -12 -22 -10 -14 4 -13 3 1 -6 16 -10 17 -14 5
-28 -18 -21 -17 -44 1 -50 8 -3 11 0 7 7 -4 6 -4 11 1 11 16 0 31 48 19 60 -8
8 -7 13 4 20 11 7 11 10 2 10 -7 0 -15 -6 -18 -14z"/>
<path d="M1880 2565 c0 -8 4 -15 10 -15 5 0 7 7 4 15 -4 8 -8 15 -10 15 -2 0
-4 -7 -4 -15z"/>
<path d="M2546 2268 c3 -5 10 -6 15 -3 13 9 11 12 -6 12 -8 0 -12 -4 -9 -9z"/>
<path d="M2526 2243 c-6 -14 -5 -15 5 -6 7 7 10 15 7 18 -3 3 -9 -2 -12 -12z"/>
<path d="M1483 1947 c-4 -6 0 -8 10 -4 16 6 17 -12 17 -213 0 -200 -2 -219
-17 -223 -10 -3 11 -5 47 -5 36 0 57 2 48 5 -16 4 -18 19 -18 123 0 68 5 130
11 144 14 31 69 52 97 37 45 -24 50 -54 52 -278 0 -33 0 -33 48 -32 26 1 39 3
30 6 -16 4 -18 18 -18 106 0 118 -14 158 -70 195 -40 27 -98 26 -131 -4 -19
-17 -19 -15 -19 69 l0 86 -40 -1 c-22 0 -43 -5 -47 -11z"/>
<path d="M2646 1934 c-14 -15 -27 -35 -27 -45 -1 -11 -3 -23 -4 -29 -1 -5 -3
-17 -4 -26 -1 -10 -7 -14 -16 -10 -8 3 -15 1 -15 -4 0 -6 8 -10 18 -10 15 0
17 -13 16 -147 -1 -135 -2 -147 -20 -154 -11 -4 10 -7 51 -7 39 0 62 2 53 5
-22 5 -20 -9 -22 148 -2 159 -2 163 30 157 14 -2 24 0 24 7 0 6 -3 10 -7 10
-45 -7 -52 0 -47 53 4 47 15 67 37 68 4 0 2 -9 -5 -19 -9 -15 -9 -23 2 -36 19
-23 54 -15 58 14 8 54 -76 70 -122 25z"/>
<path d="M2825 1950 c3 -5 8 -10 11 -10 2 0 4 5 4 10 0 6 -5 10 -11 10 -5 0
-7 -4 -4 -10z"/>
<path d="M2850 1736 c0 -205 -1 -225 -17 -229 -10 -3 14 -5 52 -5 44 0 62 2
50 7 -19 8 -20 18 -21 217 -1 115 -2 214 -3 219 0 6 -14 12 -31 13 l-30 2 0
-224z"/>
<path d="M3062 1928 c-17 -17 -15 -36 6 -47 20 -11 36 -4 44 20 12 31 -26 51
-50 27z"/>
<path d="M1209 1802 c-25 -22 -31 -36 -31 -67 0 -32 6 -45 31 -66 18 -14 49
-31 71 -38 70 -21 88 -58 50 -99 -41 -43 -126 -21 -145 38 -12 37 -23 21 -18
-27 5 -54 13 -71 13 -27 0 17 3 24 8 17 17 -26 62 -40 104 -33 78 15 114 95
68 153 -11 14 -43 33 -70 43 -63 23 -83 43 -75 77 14 53 95 55 115 2 14 -36
20 -31 20 16 0 25 -4 38 -10 34 -6 -4 -8 -10 -5 -15 3 -5 -7 -3 -22 5 -41 22
-69 18 -104 -13z"/>
<path d="M1989 1807 c-45 -30 -69 -80 -69 -145 0 -88 47 -157 110 -162 69 -6
92 0 126 34 19 19 34 39 34 45 0 7 -17 -6 -38 -29 -32 -33 -46 -40 -76 -40
-21 0 -46 4 -56 10 -22 12 -37 54 -36 100 l1 35 105 0 105 0 3 35 c6 68 -69
140 -144 140 -17 0 -46 -10 -65 -23z m124 -16 c11 -10 20 -39 24 -69 6 -57 10
-54 -67 -54 -94 -1 -89 -4 -85 54 3 42 9 57 31 76 30 26 66 24 97 -7z"/>
<path d="M3035 1820 c-20 -9 -20 -9 0 -9 20 -1 21 -7 19 -143 -2 -170 0 -155
-21 -161 -10 -3 14 -5 52 -5 39 0 62 2 53 5 -21 5 -19 -9 -21 173 l-2 144 -30
2 c-16 1 -39 -2 -50 -6z"/>
<path d="M3343 1819 c-53 -16 -85 -67 -88 -143 -4 -88 20 -140 76 -165 23 -11
49 -17 58 -16 9 2 26 4 38 4 25 1 93 56 93 76 0 7 -17 -5 -39 -26 -32 -33 -45
-39 -79 -39 -46 0 -81 28 -83 64 0 12 -2 33 -4 49 -4 29 1 31 68 30 15 -1 27
3 27 7 0 4 -15 8 -32 8 -69 0 -66 -2 -61 49 5 58 17 81 50 94 60 23 111 -36
101 -116 -2 -24 -8 -30 -25 -29 -13 1 -23 -2 -23 -6 0 -4 25 -6 55 -6 l55 0 0
34 c0 99 -89 161 -187 131z"/>
<path d="M3689 1815 c-56 -30 -61 -113 -10 -152 9 -7 37 -20 63 -28 73 -25 90
-61 50 -107 -23 -28 -87 -24 -117 7 -14 13 -25 31 -25 40 0 8 -4 15 -10 15 -5
0 -10 -11 -10 -25 0 -16 6 -25 15 -25 8 0 15 -5 15 -10 0 -16 57 -38 88 -34
64 7 108 61 98 119 -8 39 -36 62 -108 89 -49 18 -64 40 -53 77 4 11 18 24 31
29 31 12 70 -3 79 -29 3 -12 10 -21 15 -21 12 0 9 59 -3 67 -6 3 -7 1 -3 -5 4
-7 1 -12 -8 -12 -8 0 -18 5 -21 10 -9 14 -56 12 -86 -5z"/>
<path d="M3630 1514 c0 -8 5 -12 10 -9 6 3 10 10 10 16 0 5 -4 9 -10 9 -5 0
-10 -7 -10 -16z"/>
<path d="M1980 1270 l0 -70 30 0 c23 0 31 5 36 26 7 28 -9 74 -27 74 -8 0 -8
-4 -2 -12 5 -7 10 -28 11 -45 2 -24 -2 -33 -14 -33 -12 0 -15 9 -14 38 3 65 0
92 -10 92 -6 0 -10 -30 -10 -70z"/>
<path d="M2550 1324 c0 -8 5 -12 10 -9 6 4 8 11 5 16 -9 14 -15 11 -15 -7z"/>
<path d="M2438 1318 c-4 -11 -3 -85 1 -110 0 -5 8 -8 16 -8 12 0 13 4 6 19
-10 18 -8 51 4 71 3 6 2 10 -4 10 -6 0 -8 7 -5 15 4 8 2 15 -4 15 -5 0 -12 -6
-14 -12z"/>
<path d="M2142 1288 c-18 -18 -15 -77 4 -85 28 -10 49 11 47 47 -3 44 -27 62
-51 38z m33 -41 c1 -25 -2 -37 -12 -37 -9 0 -13 13 -13 41 0 52 23 48 25 -4z"/>
<path d="M2280 1257 c0 -43 21 -79 34 -58 3 5 16 7 29 4 13 -3 17 -1 11 4 -6
4 -10 25 -9 46 2 20 -1 40 -6 43 -10 6 -11 1 -13 -48 -2 -49 -26 -48 -26 1 0
22 -4 43 -10 46 -6 4 -10 -11 -10 -38z"/>
<path d="M2550 1250 c0 -33 4 -50 13 -50 8 0 11 15 9 50 -5 65 -22 65 -22 0z"/>
<path d="M2664 1286 c-17 -43 -6 -86 21 -86 8 0 15 -7 15 -16 0 -9 5 -14 12
-12 10 4 12 19 9 104 -2 41 -21 17 -21 -27 0 -21 -4 -39 -9 -39 -15 0 -20 27
-11 59 9 31 -5 45 -16 17z"/>
<path d="M2812 1253 c3 -48 3 -48 41 -50 33 -2 36 0 28 15 -5 10 -9 24 -9 32
2 32 -2 53 -9 46 -5 -4 -8 -24 -8 -44 0 -19 -6 -37 -13 -40 -8 -2 -12 9 -12
37 0 22 -5 43 -11 46 -7 5 -9 -9 -7 -42z"/>
<path d="M2972 1288 c-13 -13 -16 -47 -6 -72 9 -23 23 -19 17 5 -4 15 0 22 16
26 25 6 28 38 5 47 -20 8 -18 8 -32 -6z m35 -15 c2 -6 -3 -13 -12 -16 -10 -5
-15 0 -15 14 0 21 21 22 27 2z"/>
</g>
</svg>
